<svg xmlns="http://www.w3.org/2000/svg" viewBox="0 0 133.3 133.3" xmlns:xlink="http://www.w3.org/1999/xlink">
 <defs>
  <style>
   .a{fill:#00e1e1;}
  </style>
 </defs>
 <path class="a" d="M133.3,92.85h-.38c-6.07,0-12.48-6.42-12.48-12.49V80h-.93v.38c0,6.07-6.42,12.49-12.49,12.49h-.38v.93H107c6.07,0,12.49,6.41,12.49,12.48v.38h.93v-.38c0-6.07,6.41-12.48,12.48-12.48h.38v-.93Z">
 </path>
 <path class="a" d="M26.66,12.86h-.38C20.21,12.86,13.8,6.45,13.8.38V0h-.94V.38c0,6.07-6.41,12.48-12.48,12.48H0v.94H.38c6.07,0,12.48,6.41,12.48,12.48v.38h.94v-.38c0-6.07,6.41-12.48,12.48-12.48h.38v-.94Z">
 </path>
 <path class="a" d="M26.66,39.53h-.38C20.21,39.53,13.8,33.11,13.8,27v-.38h-.94V27c0,6.07-6.41,12.49-12.48,12.49H0v.93H.38c6.07,0,12.48,6.41,12.48,12.48v.38h.94v-.38c0-6.07,6.41-12.48,12.48-12.48h.38v-.93Z">
 </path>
 <path class="a" d="M53.32,39.53h-.38c-6.07,0-12.48-6.42-12.48-12.49v-.38h-.94V27c0,6.07-6.41,12.49-12.48,12.49h-.38v.93H27c6.07,0,12.48,6.41,12.48,12.48v.38h.94v-.38c0-6.07,6.41-12.48,12.48-12.48h.38v-.93Z">
 </path>
 <path class="a" d="M26.66,66.19h-.38c-6.07,0-12.48-6.42-12.48-12.49v-.38h-.94v.38c0,6.07-6.41,12.49-12.48,12.49H0v.93H.38c6.07,0,12.48,6.41,12.48,12.48V80h.94V79.6c0-6.07,6.41-12.48,12.48-12.48h.38v-.93Z">
 </path>
 <path class="a" d="M53.32,66.19h-.38c-6.07,0-12.48-6.42-12.48-12.49v-.38h-.94v.38c0,6.07-6.41,12.49-12.48,12.49h-.38v.93H27c6.07,0,12.48,6.41,12.48,12.48V80h.94V79.6c0-6.07,6.41-12.48,12.48-12.48h.38v-.93Z">
 </path>
 <path class="a" d="M80,66.19H79.6c-6.07,0-12.48-6.42-12.48-12.49v-.38h-.94v.38c0,6.07-6.41,12.49-12.48,12.49h-.38v.93h.38c6.07,0,12.48,6.41,12.48,12.48V80h.94V79.6c0-6.07,6.41-12.48,12.48-12.48H80v-.93Z">
 </path>
 <path class="a" d="M26.66,92.85h-.38c-6.07,0-12.48-6.42-12.48-12.49V80h-.94v.38c0,6.07-6.41,12.49-12.48,12.49H0v.93H.38c6.07,0,12.48,6.41,12.48,12.48v.38h.94v-.38c0-6.07,6.41-12.48,12.48-12.48h.38v-.93Z">
 </path>
 <path class="a" d="M53.32,92.85h-.38c-6.07,0-12.48-6.42-12.48-12.49V80h-.94v.38c0,6.07-6.41,12.49-12.48,12.49h-.38v.93H27c6.07,0,12.48,6.41,12.48,12.48v.38h.94v-.38c0-6.07,6.41-12.48,12.48-12.48h.38v-.93Z">
 </path>
 <path class="a" d="M106.64,39.53h-.38c-6.07,0-12.48-6.42-12.48-12.49v-.38h-.93V27c0,6.07-6.42,12.49-12.49,12.49H80v.93h.38c6.07,0,12.49,6.41,12.49,12.48v.38h.93v-.38c0-6.07,6.41-12.48,12.48-12.48h.38v-.93Z">
 </path>
 <path class="a" d="M106.64,66.19h-.38c-6.07,0-12.48-6.42-12.48-12.49v-.38h-.93v.38c0,6.07-6.42,12.49-12.49,12.49H80v.93h.38c6.07,0,12.49,6.41,12.49,12.48V80h.93V79.6c0-6.07,6.41-12.48,12.48-12.48h.38v-.93Z">
 </path>
 <path class="a" d="M106.64,92.85h-.38c-6.07,0-12.48-6.42-12.48-12.49V80h-.93v.38c0,6.07-6.42,12.49-12.49,12.49H80v.93h.38c6.07,0,12.49,6.41,12.49,12.48v.38h.93v-.38c0-6.07,6.41-12.48,12.48-12.48h.38v-.93Z">
 </path>
 <path class="a" d="M133.3,39.53h-.38c-6.07,0-12.48-6.42-12.48-12.49v-.38h-.93V27c0,6.07-6.42,12.49-12.49,12.49h-.38v.93H107c6.07,0,12.49,6.41,12.49,12.48v.38h.93v-.38c0-6.07,6.41-12.48,12.48-12.48h.38v-.93Z">
 </path>
 <path class="a" d="M133.3,12.86h-.38c-6.07,0-12.48-6.41-12.48-12.48V0h-.93V.38c0,6.07-6.42,12.48-12.49,12.48h-.38v.94H107c6.07,0,12.49,6.41,12.49,12.48v.38h.93v-.38c0-6.07,6.41-12.48,12.48-12.48h.38v-.94Z">
 </path>
 <path class="a" d="M133.3,66.19h-.38c-6.07,0-12.48-6.42-12.48-12.49v-.38h-.93v.38c0,6.07-6.42,12.49-12.49,12.49h-.38v.93H107c6.07,0,12.49,6.41,12.49,12.48V80h.93V79.6c0-6.07,6.41-12.48,12.48-12.48h.38v-.93Z">
 </path>
 <path class="a" d="M133.3,119.51h-.38c-6.07,0-12.48-6.42-12.48-12.49v-.38h-.93V107c0,6.07-6.42,12.49-12.49,12.49h-.38v.93H107c6.07,0,12.49,6.41,12.49,12.48v.38h.93v-.38c0-6.07,6.41-12.48,12.48-12.48h.38v-.93Z">
 </path>
 <path class="a" d="M26.66,119.51h-.38c-6.07,0-12.48-6.42-12.48-12.49v-.38h-.94V107c0,6.07-6.41,12.49-12.48,12.49H0v.93H.38c6.07,0,12.48,6.41,12.48,12.48v.38h.94v-.38c0-6.07,6.41-12.48,12.48-12.48h.38v-.93Z">
 </path>
</svg>